<svg width="512" height="512" viewBox="0 0 512 512" fill="none" xmlns="http://www.w3.org/2000/svg">
<path d="M511.996 32H0V480H511.996V32Z" fill="white"/>
<path d="M36.2667 409.599C23.4667 426.666 12.8 439.466 6.4 454.4C4.26667 456.533 0 467.2 0 473.6C0 366.211 0 348.73 0 503.87C0 508.288 3.58172 512 8 512H504C508.418 512 512 508.418 512 504V134.397C264.533 177.064 113.067 311.465 36.2667 409.599Z" fill="#414142"/>
<path d="M512 8C512 3.58172 508.418 0 504 0H8C3.58172 0 0 3.58172 0 8C0 105.601 0 203.202 0 300.803C89.6 206.935 249.6 104.534 492.8 74.6673C499.2 74.6673 512 68 512 56C512 40 512 24 512 8Z" fill="#F58220"/>
</svg>
